<svg version="1.0" xmlns="http://www.w3.org/2000/svg" width="186.667" height="186.667" viewBox="0 0 140 140"><path d="M75.3 1.5c-2.3.7-5.4 2.1-6.8 3.2-2.6 1.9-2.7 1.9-8.3-.9-5-2.4-6.8-2.7-13.8-2.5-7 .2-8.7.6-13 3.2-3 1.9-6 4.9-7.9 7.9l-3 4.9-.1 61.4-.2 61.3h7.4c7.4 0 7.4 0 7.4-2.8.1-1.5.1-27.8.1-58.5 0-38 .3-56.5 1-58.1 2.8-6.1 16.7-6 19.5.1.4 1 .8 28.1.9 60.3l.1 58.5h14.9l.1-58.5c0-32.2.4-59.5.8-60.8.4-1.2 1.6-2.7 2.7-3.3 5.5-2.9 15.1-1.2 16.7 3 .4 1.1.7 28.6.7 61.1v59.1l7.5-.3 7.5-.3-.1-61c-.1-66.8.1-64.7-6.1-70.9-6-6.1-19-8.9-28-6.1z"/></svg>