<svg aria-hidden="true" style="position: absolute; width: 0; height: 0; overflow: hidden;" version="1.1" xmlns="http://www.w3.org/2000/svg" xmlns:xlink="http://www.w3.org/1999/xlink">
<defs>
<symbol id="icon-navy-point" viewBox="0 0 16 16">
<path d="M8 1.607c-2.21 0-4 1.783-4 3.992 0 3.819 4 8.8 4 8.8s4-4.982 4-8.8c0-2.208-1.79-3.992-4-3.992v0zM8 7.808c-0.573 0-1.122-0.228-1.527-0.633s-0.633-0.955-0.633-1.527 0.228-1.122 0.633-1.527c0.405-0.405 0.954-0.633 1.527-0.633s1.122 0.228 1.527 0.633c0.405 0.405 0.633 0.954 0.633 1.527s-0.228 1.122-0.633 1.527c-0.405 0.405-0.954 0.633-1.527 0.633z"></path>
</symbol>
<symbol id="icon-cellphone" viewBox="0 0 16 16">
<path d="M10.5 1.333c0.398 0 0.779 0.158 1.061 0.439s0.439 0.663 0.439 1.061v10.333c0 0.398-0.158 0.779-0.439 1.061s-0.663 0.439-1.061 0.439h-5c-0.398 0-0.779-0.158-1.061-0.439s-0.439-0.663-0.439-1.061v-10.333c0-0.398 0.158-0.779 0.439-1.061s0.663-0.439 1.061-0.439h5zM10.5 2.333h-5c-0.133 0-0.26 0.053-0.354 0.146s-0.146 0.221-0.146 0.354v10.333c0 0.276 0.224 0.5 0.5 0.5h5c0.133 0 0.26-0.053 0.354-0.146s0.146-0.221 0.146-0.354v-10.333c0-0.133-0.053-0.26-0.146-0.354s-0.221-0.146-0.354-0.146v0zM8.833 11.667c0.133-0 0.26 0.052 0.354 0.146s0.147 0.221 0.147 0.353-0.052 0.26-0.146 0.354c-0.094 0.094-0.221 0.147-0.353 0.147l-1.667 0.003c-0.133 0-0.26-0.052-0.354-0.146s-0.147-0.221-0.147-0.353c-0-0.133 0.052-0.26 0.146-0.354s0.221-0.147 0.353-0.147l1.667-0.003z"></path>
</symbol>
</defs>
</svg>
